# xmcd
#
# Track frame offsets:
#	150
#	16096
#	30910
#	48381
#
# Disc length: 885 seconds
#
# Revision: 0
# Processed by: cddbd v1.5.2PL0 Copyright (c) Steve Scherf et al.
# Submitted via: audiograbber 1.83.01
#
DISCID=1f037304
DTITLE=мийос оийомолопоукос (BY DJ ZRAF) - латиа лоу
DYEAR=2007
DGENRE=каийа
TTITLE0=йоита ма лахаимеис
TTITLE1=ока лас выяифоум
TTITLE2=латиа лоу
TTITLE3=лиа йаядиа поу с' ацапаеи
EXTD=
EXTT0=
EXTT1=
EXTT2=
EXTT3=
PLAYORDER=
